<?xml version="1.0" encoding="UTF-8"?>
<svg width="192px" height="66px" viewBox="0 0 192 66" version="1.1" xmlns="http://www.w3.org/2000/svg" xmlns:xlink="http://www.w3.org/1999/xlink">
    <title>Group 25</title>
    <g id="Page-1" stroke="none" stroke-width="1" fill="none" fill-rule="evenodd">
        <g id="Portfolio-Elisa-Naharro" transform="translate(-422.000000, -3743.000000)">
            <g id="Group-25" transform="translate(422.000000, 3743.000000)">
                <path d="M182.193929,7.11505006 C182.032915,7.58005006 181.725703,7.75005006 181.218953,7.78405006 C181.918328,8.55705006 182.504104,9.20305006 183.094819,9.85505006 C181.798802,11.0450501 181.271307,9.31805006 180.397088,9.08705006 C179.936765,10.0460501 181.370089,10.3630501 180.731958,11.2160501 C179.645358,11.1630501 178.503441,11.1070501 176.917993,11.0300501 C178.158692,12.4840501 179.783653,12.2220501 180.838643,13.0890501 C180.15606,14.9300501 178.224876,12.5860501 177.378316,14.1880501 C178.372061,14.2250501 179.257146,14.4730501 180.121487,14.8140501 C179.460636,16.4310501 180.145194,19.2330501 176.31246,18.0640501 C177.276571,18.9730501 177.742821,19.4110501 178.266364,19.9060501 C178.063862,20.2020501 177.844566,20.5210501 177.575879,20.9120501 C178.075715,21.2120501 178.506404,21.4710501 178.944008,21.7350501 C178.783981,22.0220501 178.622967,22.3090501 178.40861,22.6920501 C179.562382,22.8750501 180.459321,23.2160501 180.051352,24.7730501 C178.62593,22.8360501 177.590697,26.5370501 176.163299,24.5350501 C175.953882,25.5560501 176.749076,25.6530501 176.835016,26.3310501 C175.759282,26.8120501 174.26175,26.1550501 173.325298,27.4030501 C174.169882,27.7310501 175.007552,28.0560501 175.935114,28.4150501 C174.828757,29.7610501 172.644691,27.2870501 172.118184,29.8720501 C172.970671,30.0190501 173.862671,30.2350501 174.765537,30.3110501 C175.688159,30.3880501 176.620659,30.3270501 177.699357,30.3270501 C177.228167,31.7610501 175.836332,30.1660501 175.501461,31.4590501 C176.26702,32.1130501 177.268668,32.1130501 178.241669,32.4230501 C175.99537,33.5230501 173.153418,31.6870501 171.324966,33.8540501 C174.703304,34.4810501 178.295999,34.9960501 181.810656,35.8450501 C185.2453,36.6730501 189.215341,35.9980501 192,39.2040501 C191.028975,39.8970501 190.250574,38.6730501 189.355611,39.2220501 C189.531442,40.0040501 190.733617,39.8890501 190.808691,40.8670501 C189.228182,40.4990501 189.208426,41.9970501 188.609808,42.8080501 C187.900555,43.7690501 189.366477,43.7890501 189.40105,44.4380501 C188.837006,45.3280501 187.906482,44.6560501 187.208094,45.0580501 C187.256497,46.0190501 188.976289,45.3360501 188.758969,46.5590501 C188.594991,47.4830501 187.747443,47.5210501 187.104373,47.5690501 C187.009543,48.4940501 187.894628,48.3980501 188.083301,49.0620501 C187.408621,49.5210501 186.604537,49.1550501 185.889357,49.3510501 C185.289751,50.2480501 187.711881,51.2070501 185.771807,52.1020501 C186.348692,52.3710501 186.856431,52.6100501 187.342437,52.8370501 C187.263412,53.6370501 186.632196,53.6160501 186.145202,53.8040501 C186.619355,54.4250501 187.609148,54.3880501 187.969702,55.6260501 C185.880467,54.4340501 185.067492,57.2040501 183.220272,56.7880501 C182.000317,59.4370501 179.970351,57.7370501 178.337487,57.6080501 C175.704952,57.3990501 173.035867,56.3220501 170.500138,56.6230501 C168.321999,56.8820501 166.241654,57.0000501 164.042771,56.7540501 C165.990748,57.5710501 168.081959,57.9550501 169.572577,59.3930501 C168.606491,59.3540501 168.389171,60.3050501 167.974287,61.3110501 C168.355585,61.5820501 168.796152,61.8970501 169.304878,62.2590501 C169.953875,62.0970501 170.860692,61.3800501 171.443504,62.8230501 C167.938726,63.8840501 164.452715,63.0070501 160.998315,63.1840501 C160.849155,64.0000501 162.138257,64.2140501 161.649287,65.1940501 C159.897886,65.8170501 158.100057,65.0650501 156.326923,64.8960501 C153.27259,64.6060501 150.239,64.1120501 147.171825,63.8560501 C144.001916,63.5920501 140.83991,63.1410501 137.701612,62.6020501 C136.177409,62.3400501 134.623571,62.2640501 133.118136,62.1540501 C128.562319,61.8210501 124.01638,61.3720501 119.468465,60.9510501 C115.209981,60.5570501 110.942606,60.4230501 106.67622,60.1890501 C102.038414,59.9340501 97.3996197,59.7170501 92.7628013,59.4520501 C87.2843619,59.1390501 81.8009834,59.0030501 76.327483,58.6980501 C72.6804584,58.4940501 69.0423242,58.4060501 65.4022143,58.4460501 C59.8141271,58.5060501 54.2457962,58.9550501 48.6715384,59.4230501 C44.219442,59.7970501 39.721906,60.1850501 35.2381995,59.8390501 C34.1012208,59.7510501 32.7973008,59.4650501 31.9319721,58.7930501 C30.9036534,57.9940501 29.9000302,58.0750501 28.8223206,58.0580501 C24.6734844,57.9890501 20.5187213,57.6240501 16.3896414,58.4130501 C13.5832501,58.9490501 10.7561146,59.2430501 7.88847849,59.1680501 C6.86608671,59.1420501 6.32970145,58.8610501 6.56974126,57.6980501 C4.43704189,57.7060501 2.36855069,57.6890501 0.710991845,56.1350501 C1.85587308,56.0460501 3.04224267,56.7540501 4.01030445,55.6720501 C3.18646412,54.9900501 1.95564271,55.3910501 1.01622765,54.6270501 C2.08109561,54.0730501 3.12324376,55.1350501 3.96980391,54.2810501 C3.31784393,53.5230501 2.87135013,52.8260501 4.44000534,52.5260501 C5.28557768,52.3640501 6.09064946,51.9920501 6.99944216,51.6880501 C5.59476475,50.5810501 4.0024019,51.4690501 2.38633142,50.9170501 C3.37118611,49.3300501 5.05936732,49.6450501 6.39786091,49.1770501 C6.06397837,48.7290501 5.5918013,48.9400501 5.20358877,48.9600501 C4.80549806,48.9820501 4.42420025,49.2150501 4.02215827,49.2840501 C3.35636884,49.4000501 2.43473451,49.2540501 2.34681869,48.7140501 C2.24408561,48.0760501 2.77454395,47.4060501 3.73371537,47.4530501 C4.66522788,47.5000501 5.49499512,46.8620501 6.47984981,46.9850501 C5.15321004,46.6050501 3.72186155,47.0240501 2.47325942,46.0400501 C3.26548957,44.5200501 5.13542932,45.3980501 6.18251655,44.3950501 C5.56710585,43.9040501 4.79463206,44.4440501 4.19206299,43.9310501 C3.46898011,43.3140501 3.47490702,42.8280501 4.29578389,42.3540501 C3.72680064,41.6600501 3.28820939,42.2690501 2.82294704,42.3370501 C2.34484306,42.4070501 1.85093398,42.4410501 1.55162509,41.9070501 C1.71461508,40.9840501 2.55327269,40.9460501 3.20029357,40.5100501 C2.15024288,40.5100501 1.09821656,40.5100501 0.0926176864,40.5100501 C-0.132604851,39.7750501 0.0471780518,39.5390501 0.695186755,39.4300501 C2.48906451,39.1260501 4.27405189,38.4120501 6.04817328,38.4570501 C7.4538385,38.4920501 7.84797794,37.1080501 9.01854245,37.0630501 C8.38337538,36.8810501 7.75117177,36.7510501 7.16539561,36.2630501 C7.82031904,34.6610501 9.34847371,34.7300501 10.5763317,34.7620501 C12.6813721,34.8180501 14.7222044,34.2630501 16.810452,34.3480501 C17.342886,34.3690501 17.7152934,34.1360501 18.0422612,33.8040501 C17.3053489,32.8530501 15.3297126,35.2480501 15.0876971,32.4590501 C17.0909923,32.9620501 18.6092688,31.7050501 20.3389384,31.2750501 C20.2638642,30.5260501 19.434097,30.8640501 19.0518113,30.3740501 C19.9161522,28.6980501 21.6724929,29.1670501 23.0258037,28.7070501 C21.5174054,27.9250501 19.7185886,28.4630501 18.0284317,27.6470501 C18.9846397,27.1040501 19.7798333,26.6530501 20.6738087,26.1450501 C17.4683389,25.3350501 14.3320162,25.6760501 10.9428122,25.5460501 C12.2378418,23.6980501 14.2203928,24.0730501 15.6655707,23.2380501 C14.1947095,22.9680501 12.6349447,23.2980501 11.4712949,22.0010501 C13.4172966,21.0320501 15.5964235,21.1830501 17.7459158,21.2230501 C18.9174681,21.2450501 19.6682099,20.9860501 19.3264248,19.5100501 C16.6899382,19.0720501 14.0040606,19.6100501 11.1087656,19.6420501 C12.4452836,17.7090501 14.3221381,18.6120501 16.1130524,17.9980501 C14.2796619,17.0010501 12.7001407,18.6550501 11.0702407,17.5850501 C11.7073834,14.2330501 14.9573051,16.6180501 16.3224698,15.0610501 C14.5364946,15.0610501 12.6211152,15.0610501 10.7067237,15.0610501 C10.6909186,14.9100501 10.6751135,14.7590501 10.6583206,14.6090501 C14.8140715,13.3730501 19.249375,13.5030501 23.410065,12.2500501 C20.0998864,12.2040501 16.821318,11.2200501 13.5101516,12.0710501 C13.0597065,12.1870501 12.5529558,12.0890501 12.0728761,12.0740501 C11.6095894,12.0610501 11.2065596,11.8530501 11.2055718,11.3640501 C11.2055718,10.8820501 11.6135407,10.7400501 12.0610223,10.6220501 C13.6998126,10.1870501 15.365274,10.2510501 17.027772,10.2720501 C17.8654418,10.2820501 18.6754526,10.2620501 19.3866817,9.72805006 C16.3738364,8.71105006 13.1525614,10.7460501 10.0379708,9.21905006 C11.0149229,7.56505006 12.6132127,8.05505006 13.8134117,7.79305006 C17.2816412,7.04005006 20.8535916,6.92805006 24.3781268,6.53605006 C28.907273,6.03305006 33.4927248,6.10605006 37.9774192,5.17805006 C38.2658621,5.11805006 38.576037,5.15605006 38.8773215,5.15805006 C46.1071625,5.22705006 53.3004543,4.11605006 60.5362222,4.44605006 C61.5102109,4.48905006 62.2935506,3.98305006 63.0255239,3.61405006 C64.6751802,2.77905006 66.3031045,2.29805006 68.1641539,2.31205006 C72.101597,2.34205006 76.0311376,1.95405006 79.9666051,1.80705006 C86.4279236,1.56505006 92.8704735,0.833050056 99.3288285,0.447050056 C103.621886,0.190050056 107.928773,0.110050056 112.230721,0.064050056 C118.066751,0.00205005597 123.905744,-0.046949944 129.739798,0.076050056 C135.118468,0.190050056 140.498125,0.467050056 145.867905,0.802050056 C150.830703,1.11305006 155.775721,1.74305006 160.70197,2.34205006 C166.68716,3.07005006 172.775083,3.47505006 178.529124,5.71205006 C179.710554,6.17105006 180.98484,6.45205006 182.193929,7.11505006" id="Fill-32" fill="#F5F2FA"></path>
                <text id="elisa-naharro" font-family="SummerVibes, Summer Vibes" font-size="27" font-style="italic" font-weight="normal" fill="#B286AB">
                    <tspan x="35" y="41">elisa naharro</tspan>
                </text>
            </g>
        </g>
    </g>
</svg>