<?xml version="1.0" encoding="UTF-8"?>
<svg width="80px" height="80px" viewBox="0 0 80 80" version="1.1" xmlns="http://www.w3.org/2000/svg" xmlns:xlink="http://www.w3.org/1999/xlink">
    <title>Button</title>
    <g id="Page-1" stroke="none" stroke-width="1" fill="none" fill-rule="evenodd">
        <g id="Portfolio-Elisa-Naharro" transform="translate(-680.000000, -732.000000)">
            <g id="Group-6" transform="translate(660.000000, 732.000000)">
                <g id="Button" transform="translate(20.000000, 0.000000)">
                    <circle id="Oval" fill="#7656BD" cx="40" cy="40" r="40"></circle>
                    <g id="flecha-arriba" transform="translate(40.500000, 40.500000) scale(1, -1) translate(-40.500000, -40.500000) translate(28.000000, 33.000000)" fill="#FFFFFF" fill-rule="nonzero">
                        <path d="M24.7502877,12.2683121 L13.0759349,0.257822233 C12.9091384,0.0860310181 12.7172478,0 12.5001754,0 C12.2831031,0 12.0908615,0.0860310181 11.9239773,0.257822233 L0.250589622,12.2683121 C0.0833543911,12.4403741 0,12.6378031 0,12.861231 C0,13.0845686 0.0836176154,13.2822684 0.250589622,13.4539693 L1.5028358,14.742268 C1.66980781,14.9140593 1.86196161,15 2.079034,15 C2.29610638,15 2.48826019,14.9140593 2.65523219,14.742268 L12.5001754,4.61335692 L22.3454697,14.7429 C22.5123539,14.9146912 22.7045955,15 22.9213169,15 C23.1387402,15 23.3308941,14.9141495 23.4977783,14.7429 L24.7502,13.4540596 C24.9170842,13.2823587 25,13.0845686 25,12.8613212 C25,12.6378031 24.917172,12.4401033 24.7502877,12.2683121 Z" id="Path"></path>
                    </g>
                </g>
            </g>
        </g>
    </g>
</svg>